<svg width="349" height="46" viewBox="0 0 349 46" fill="none" xmlns="http://www.w3.org/2000/svg">
<rect width="349" height="46" rx="15" fill="#D9D9D9"/>
<rect x="12" y="6" width="327" height="35" rx="15" fill="white"/>
<rect x="12" y="6" width="248" height="35" rx="15" fill="#822882"/>
<path d="M26.9661 30L31.6057 20.8168V20.7422H26.2204V19.0909H33.6511V20.7795L29.0169 30H26.9661ZM39.0165 30.1491C38.3062 30.1491 37.6706 30.016 37.1095 29.7496C36.5484 29.4798 36.1028 29.1104 35.7725 28.6417C35.4458 28.1729 35.2718 27.6367 35.2505 27.033H37.1681C37.2036 27.4805 37.3972 27.8462 37.7487 28.1303C38.1003 28.4109 38.5229 28.5511 39.0165 28.5511C39.4035 28.5511 39.748 28.4624 40.0498 28.2848C40.3517 28.1072 40.5896 27.8604 40.7636 27.5444C40.9376 27.2283 41.0229 26.8679 41.0193 26.4631C41.0229 26.0511 40.9359 25.6854 40.7583 25.3658C40.5807 25.0462 40.3375 24.7958 40.0285 24.6147C39.7196 24.43 39.3645 24.3377 38.9632 24.3377C38.6365 24.3342 38.3151 24.3945 37.9991 24.5188C37.683 24.6431 37.4327 24.8065 37.248 25.0089L35.4636 24.7159L36.0335 19.0909H42.3616V20.7422H37.6688L37.3545 23.6346H37.4185C37.6209 23.3967 37.9067 23.1996 38.2761 23.0433C38.6454 22.8835 39.0502 22.8036 39.4905 22.8036C40.1511 22.8036 40.7405 22.9599 41.259 23.2724C41.7775 23.5813 42.1859 24.0075 42.4842 24.5508C42.7824 25.0941 42.9316 25.7156 42.9316 26.4151C42.9316 27.136 42.7647 27.7788 42.4309 28.3434C42.1006 28.9045 41.6408 29.3466 41.0513 29.6697C40.4653 29.9893 39.7871 30.1491 39.0165 30.1491ZM50.5488 27.9545V27.3793C50.5488 26.9567 50.6376 26.5678 50.8151 26.2127C50.9962 25.8576 51.259 25.5717 51.6035 25.3551C51.9479 25.1385 52.3652 25.0302 52.8552 25.0302C53.3595 25.0302 53.7821 25.1385 54.123 25.3551C54.4639 25.5682 54.7214 25.8523 54.8954 26.2074C55.0729 26.5625 55.1617 26.9531 55.1617 27.3793V27.9545C55.1617 28.3771 55.0729 28.766 54.8954 29.1211C54.7178 29.4762 54.4568 29.7621 54.1123 29.9787C53.7714 30.1953 53.3524 30.3036 52.8552 30.3036C52.3581 30.3036 51.9373 30.1953 51.5928 29.9787C51.2484 29.7621 50.9873 29.4762 50.8098 29.1211C50.6358 28.766 50.5488 28.3771 50.5488 27.9545ZM51.9391 27.3793V27.9545C51.9391 28.2351 52.0065 28.4925 52.1415 28.7269C52.2764 28.9613 52.5143 29.0785 52.8552 29.0785C53.1997 29.0785 53.4359 28.9631 53.5637 28.7322C53.6951 28.4979 53.7608 28.2386 53.7608 27.9545V27.3793C53.7608 27.0952 53.6986 26.8359 53.5744 26.6016C53.4501 26.3636 53.2104 26.2447 52.8552 26.2447C52.5214 26.2447 52.2853 26.3636 52.1468 26.6016C52.0083 26.8359 51.9391 27.0952 51.9391 27.3793ZM45.0037 21.7116V21.1364C45.0037 20.7102 45.0942 20.3196 45.2753 19.9645C45.4565 19.6094 45.7192 19.3253 46.0637 19.1122C46.4082 18.8956 46.8254 18.7873 47.3155 18.7873C47.8162 18.7873 48.237 18.8956 48.5779 19.1122C48.9224 19.3253 49.1816 19.6094 49.3556 19.9645C49.5296 20.3196 49.6166 20.7102 49.6166 21.1364V21.7116C49.6166 22.1378 49.5278 22.5284 49.3503 22.8835C49.1763 23.2351 48.917 23.5174 48.5726 23.7305C48.2281 23.9435 47.8091 24.0501 47.3155 24.0501C46.8148 24.0501 46.3922 23.9435 46.0477 23.7305C45.7068 23.5174 45.4476 23.2333 45.27 22.8782C45.0925 22.5231 45.0037 22.1342 45.0037 21.7116ZM46.4046 21.1364V21.7116C46.4046 21.9957 46.4703 22.255 46.6017 22.4893C46.7366 22.7202 46.9746 22.8356 47.3155 22.8356C47.6564 22.8356 47.8908 22.7202 48.0186 22.4893C48.15 22.255 48.2157 21.9957 48.2157 21.7116V21.1364C48.2157 20.8523 48.1535 20.593 48.0293 20.3587C47.905 20.1207 47.667 20.0018 47.3155 20.0018C46.9781 20.0018 46.742 20.1207 46.607 20.3587C46.4721 20.5966 46.4046 20.8558 46.4046 21.1364ZM45.6109 30L53.1109 19.0909H54.4426L46.9426 30H45.6109Z" fill="white"/>
</svg>
